<?xml version="1.0" standalone="no"?>
<!DOCTYPE svg PUBLIC "-//W3C//DTD SVG 20010904//EN"
 "http://www.w3.org/TR/2001/REC-SVG-20010904/DTD/svg10.dtd">
<svg version="1.0" xmlns="http://www.w3.org/2000/svg"
 width="700.000000pt" height="700.000000pt" viewBox="0 0 700.000000 700.000000"
 preserveAspectRatio="xMidYMid meet">
<metadata>
Created by potrace 1.14, written by Peter Selinger 2001-2017
</metadata>
<g transform="translate(0.000000,700.000000) scale(0.100000,-0.100000)"
fill="#000000" stroke="none">
<path d="M3345 6711 c-66 -37 -156 -86 -200 -110 -44 -24 -84 -47 -90 -51 -5
-4 -44 -25 -85 -47 -41 -22 -332 -182 -646 -356 -620 -342 -658 -363 -736
-406 -29 -16 -91 -50 -138 -76 -47 -26 -114 -63 -150 -83 -62 -33 -401 -220
-520 -285 -30 -17 -71 -40 -90 -52 l-34 -22 -1 -1652 c0 -909 2 -1657 5 -1661
4 -6 692 -423 825 -500 17 -9 376 -225 800 -480 424 -254 784 -470 800 -480
17 -10 110 -65 208 -124 l178 -107 57 33 c31 18 65 38 74 43 10 6 93 55 185
109 93 54 204 120 248 146 290 170 624 367 765 450 91 54 246 145 345 203 99
58 408 240 687 404 l508 298 0 1661 c0 1318 -3 1664 -12 1671 -7 6 -58 34
-113 63 -55 29 -314 169 -575 310 -261 141 -515 279 -565 305 -49 26 -94 51
-100 55 -5 4 -50 29 -100 55 -49 26 -112 60 -140 75 -27 15 -86 47 -130 70
-44 23 -100 54 -125 67 -25 14 -83 46 -130 71 -47 24 -132 71 -190 102 -58 32
-136 74 -175 95 -38 21 -101 55 -138 77 -38 21 -70 38 -72 38 -2 0 -70 36
-151 80 -81 44 -150 80 -153 79 -3 -1 -60 -31 -126 -68z m196 -663 c34 -51 85
-127 114 -168 28 -41 109 -160 180 -265 71 -104 195 -287 275 -405 81 -118
182 -267 225 -330 43 -63 102 -150 131 -192 l53 -78 -1034 0 c-569 0 -1035 3
-1035 6 0 3 44 72 99 153 103 152 254 375 271 401 24 34 430 637 538 798 63
94 116 172 118 172 1 0 30 -42 65 -92z m814 -243 c39 -21 93 -50 120 -65 86
-48 396 -215 490 -265 50 -27 128 -69 175 -95 47 -26 130 -71 185 -100 55 -29
129 -70 165 -89 36 -20 91 -50 122 -66 32 -17 58 -33 58 -36 0 -6 -102 -70
-170 -106 -14 -8 -133 -79 -265 -158 -132 -79 -240 -143 -241 -142 -5 8 -225
332 -337 497 -77 113 -174 255 -215 315 -41 61 -122 179 -180 263 l-104 154
63 -35 c35 -20 96 -52 134 -72z m-1587 68 c-8 -10 -122 -178 -254 -373 -495
-737 -542 -805 -557 -804 -12 1 -544 322 -629 379 -16 10 -13 14 20 32 20 11
100 55 177 98 77 42 169 93 205 112 36 20 124 68 195 108 190 105 610 337 685
378 36 19 85 47 110 61 53 30 69 33 48 9z m3138 -2038 c0 -481 -3 -872 -7
-868 -3 5 -118 229 -254 498 -137 270 -288 568 -337 664 -48 96 -87 175 -86
177 2 1 145 86 318 189 173 103 324 193 335 201 11 7 23 13 26 13 3 1 5 -393
5 -874z m-4463 656 c163 -100 297 -186 297 -191 0 -4 -30 -68 -66 -141 -37
-74 -101 -206 -144 -294 -43 -88 -150 -308 -239 -489 -89 -180 -161 -330 -161
-332 0 -2 -8 -17 -18 -33 -18 -29 -18 -4 -17 827 1 471 3 859 4 861 0 2 11 -3
24 -11 12 -8 156 -97 320 -197z m3107 -326 c0 -3 -101 -182 -224 -398 -123
-215 -290 -509 -371 -652 -81 -143 -161 -282 -177 -310 -16 -27 -32 -58 -35
-67 -3 -10 -9 -18 -14 -18 -5 0 -9 -4 -9 -9 0 -4 -34 -69 -76 -142 -42 -74
-92 -163 -111 -199 -20 -36 -41 -71 -48 -78 -10 -11 -36 29 -135 205 -68 120
-209 369 -313 553 -105 184 -200 353 -212 375 -12 22 -71 128 -132 235 -60
107 -121 215 -135 240 -14 25 -53 94 -86 153 -34 60 -62 110 -62 113 0 2 482
4 1070 4 589 0 1070 -2 1070 -5z m441 -378 c465 -924 774 -1534 781 -1544 14
-17 2 -20 -112 -28 -58 -3 -123 -8 -145 -10 -66 -6 -197 -17 -245 -20 -88 -6
-235 -17 -270 -20 -19 -2 -78 -6 -130 -10 -52 -3 -115 -8 -140 -10 -25 -2 -79
-7 -120 -10 -41 -3 -100 -8 -130 -10 -30 -3 -82 -7 -115 -9 -33 -3 -96 -8
-140 -11 -44 -3 -102 -8 -130 -10 -27 -2 -89 -6 -137 -10 -49 -4 -88 -5 -88
-2 0 2 49 89 108 193 59 104 111 196 115 204 4 8 15 29 26 45 10 17 46 80 81
140 87 153 93 164 123 217 14 26 70 125 125 220 54 95 110 193 124 218 14 25
51 90 83 145 31 55 67 118 80 140 21 38 78 137 126 222 12 21 29 50 36 66 8
15 18 25 23 22 5 -3 37 -61 71 -128z m-2912 68 c16 -28 37 -66 48 -85 80 -141
155 -273 178 -315 16 -27 107 -189 203 -360 97 -170 251 -445 344 -610 92
-165 172 -307 178 -315 5 -8 19 -32 30 -53 l21 -38 -88 6 c-48 4 -104 8 -123
10 -19 2 -78 7 -130 10 -52 4 -113 8 -135 11 -22 2 -76 6 -120 9 -44 3 -100 7
-125 10 -25 2 -81 7 -125 10 -44 3 -105 8 -135 10 -131 12 -159 14 -235 20
-186 13 -342 26 -385 30 -19 2 -82 6 -140 10 -58 4 -108 10 -113 14 -4 4 20
63 54 132 34 68 94 192 134 274 40 83 129 265 197 405 287 586 362 738 391
802 18 37 36 66 40 65 5 -2 21 -25 36 -52z m-87 -2130 c31 -2 86 -7 122 -10
87 -7 175 -14 261 -20 106 -8 195 -15 245 -20 25 -2 86 -7 135 -10 50 -4 106
-8 125 -10 19 -3 76 -7 125 -10 50 -4 106 -8 125 -10 19 -2 54 -5 77 -6 23 -1
44 -7 45 -13 9 -28 2 -746 -7 -746 -6 0 -336 196 -735 436 l-725 435 75 -6
c41 -3 100 -8 132 -10z m3173 -4 c-38 -23 -468 -277 -515 -303 -19 -11 -87
-51 -150 -88 -170 -100 -172 -101 -257 -151 -43 -25 -182 -107 -310 -182 -128
-75 -234 -137 -237 -137 -2 0 -5 171 -5 379 0 351 1 380 17 385 9 2 58 8 107
11 50 3 113 8 140 10 28 2 84 7 125 10 41 3 102 7 135 10 33 3 89 7 125 9 155
12 208 16 255 21 28 3 91 7 140 11 50 3 106 7 125 9 19 2 80 7 135 10 55 4
101 8 102 9 1 0 23 2 50 3 l48 3 -30 -19z"/>
</g>
</svg>
