<svg xmlns="http://www.w3.org/2000/svg" viewBox="0 0 32 32">
  <path d="m15.88,1L3,8.1v15.18l12.87,7.72,13.12-7.72v-15.19L15.88,1Zm-4.72,9.93l4.73-7.01,4.77,7.01h-9.5Zm9.67,2l-4.94,8.68-4.9-8.68h9.84Zm-6.74,9.57l-8.54-.67,3.79-7.75,4.75,8.42Zm8.4-8.45l3.93,7.78-8.75.67,4.81-8.45Zm.35-3.45l-3.83-5.62,6.95,3.76-3.13,1.86Zm-13.86-.01l-3-1.84,6.75-3.72-3.75,5.56Zm-1,1.73l-2.98,6.09v-7.92l2.98,1.83Zm6.9,12.25v3.51l-6.73-4.04,6.73.53Zm2,0l6.89-.53-6.89,4.05v-3.52Zm6.98-12.25l3.14-1.87v8.07l-3.14-6.2Z" fill="#FF0"/>
</svg>